<svg width="126" height="16" viewBox="0 0 126 16" fill="none" xmlns="http://www.w3.org/2000/svg">
<path d="M125.455 7.18714L122.947 7.46064C122.877 7.2074 122.752 6.96935 122.575 6.74649C122.403 6.52364 122.17 6.34384 121.876 6.20708C121.583 6.07033 121.223 6.00196 120.797 6.00196C120.225 6.00196 119.744 6.12605 119.354 6.37423C118.969 6.6224 118.779 6.94402 118.784 7.33908C118.779 7.67843 118.903 7.95447 119.156 8.16719C119.415 8.37992 119.84 8.55465 120.433 8.69141L122.423 9.11686C123.527 9.3549 124.348 9.73224 124.885 10.2489C125.427 10.7655 125.7 11.4416 125.705 12.2773C125.7 13.0117 125.485 13.66 125.06 14.2222C124.639 14.7794 124.054 15.215 123.305 15.529C122.555 15.843 121.694 16 120.721 16C119.293 16 118.143 15.7012 117.272 15.1035C116.401 14.5008 115.882 13.6626 115.715 12.5888L118.397 12.3305C118.518 12.8573 118.777 13.2549 119.172 13.5233C119.567 13.7917 120.081 13.926 120.714 13.926C121.367 13.926 121.891 13.7917 122.287 13.5233C122.687 13.2549 122.887 12.9231 122.887 12.528C122.887 12.1938 122.758 11.9177 122.499 11.6999C122.246 11.4822 121.851 11.315 121.314 11.1985L119.324 10.7807C118.204 10.5477 117.376 10.1552 116.839 9.60308C116.302 9.04595 116.036 8.34193 116.042 7.49103C116.036 6.77182 116.231 6.14884 116.627 5.62209C117.027 5.09028 117.581 4.68003 118.29 4.39133C119.004 4.09756 119.828 3.95068 120.759 3.95068C122.127 3.95068 123.203 4.24191 123.988 4.82437C124.778 5.40683 125.267 6.19442 125.455 7.18714Z" fill="#00A8FF"/>
<path d="M100.735 15.772L97.4375 4.10254H100.241L102.292 12.3076H102.399L104.495 4.10254H107.268L109.365 12.2621H109.479L111.5 4.10254H114.311L111.006 15.772H108.142L105.954 7.886H105.795L103.607 15.772H100.735Z" fill="#00A8FF"/>
<path d="M90.8727 16C89.7027 16 88.6923 15.7569 87.8414 15.2707C86.9955 14.7794 86.3447 14.0855 85.8888 13.189C85.433 12.2875 85.2051 11.2264 85.2051 10.0057C85.2051 8.80537 85.433 7.75187 85.8888 6.84526C86.3497 5.93358 86.993 5.2245 87.8186 4.71801C88.6441 4.20646 89.6141 3.95068 90.7283 3.95068C91.4475 3.95068 92.1262 4.06718 92.7644 4.30016C93.4076 4.52808 93.9749 4.88262 94.4662 5.36378C94.9626 5.84495 95.3526 6.4578 95.6362 7.20233C95.9198 7.9418 96.0616 8.82309 96.0616 9.8462V10.6895H86.4966V8.83576H93.4254C93.4203 8.30901 93.3064 7.84051 93.0835 7.43025C92.8606 7.01493 92.5492 6.68825 92.149 6.4502C91.754 6.21215 91.2931 6.09313 90.7663 6.09313C90.2041 6.09313 89.7103 6.22988 89.2848 6.50338C88.8594 6.77182 88.5276 7.12636 88.2896 7.567C88.0566 8.00258 87.9376 8.48121 87.9325 9.0029V10.6211C87.9325 11.2998 88.0566 11.8823 88.3048 12.3685C88.553 12.8497 88.8999 13.2194 89.3456 13.4777C89.7913 13.731 90.313 13.8576 90.9107 13.8576C91.3108 13.8576 91.6729 13.8019 91.9971 13.6904C92.3212 13.5739 92.6023 13.4043 92.8404 13.1814C93.0784 12.9586 93.2582 12.6825 93.3798 12.3533L95.9477 12.642C95.7856 13.3207 95.4766 13.9133 95.0208 14.4198C94.57 14.9212 93.9926 15.3112 93.2886 15.5898C92.5846 15.8633 91.7793 16 90.8727 16Z" fill="#00A8FF"/>
<path d="M82.7589 0.212769V15.7721H80.2518L72.9204 5.17381H72.7913V15.7721H69.9727V0.212769H72.495L79.8188 10.8186H79.9555V0.212769H82.7589Z" fill="#00A8FF"/>
<path d="M55.0612 15.9696C54.3167 15.9696 53.6558 15.8455 53.0784 15.5974C52.506 15.3441 52.0527 14.9643 51.7184 14.4578C51.3892 13.9462 51.2246 13.3055 51.2246 12.5356C51.2246 11.8873 51.3386 11.3403 51.5665 10.8946C51.7944 10.4489 52.1084 10.0868 52.5086 9.80821C52.9087 9.52964 53.3696 9.31945 53.8913 9.17763C54.4129 9.03075 54.9701 8.93199 55.5627 8.88134C56.2262 8.82056 56.7605 8.75725 57.1657 8.69141C57.5709 8.6205 57.8647 8.52173 58.047 8.39511C58.2344 8.26342 58.3281 8.07856 58.3281 7.84051V7.80252C58.3281 7.41253 58.1939 7.11116 57.9254 6.89844C57.657 6.68572 57.2949 6.57935 56.839 6.57935C56.3477 6.57935 55.9527 6.68572 55.6538 6.89844C55.355 7.11116 55.1651 7.40493 55.084 7.77973L51.6577 7.65817C51.759 6.94909 52.0198 6.31598 52.4402 5.75884C52.8656 5.19664 53.4481 4.756 54.1876 4.43691C54.9321 4.11276 55.8261 3.95068 56.8694 3.95068C57.614 3.95068 58.3002 4.03932 58.9283 4.21659C59.5563 4.38879 60.1033 4.64204 60.5693 4.97632C61.0353 5.30554 61.3949 5.71073 61.6481 6.19189C61.9064 6.67305 62.0356 7.22259 62.0356 7.84051V15.7721H58.5408V14.1463H58.4497C58.242 14.5413 57.9761 14.8756 57.6519 15.1491C57.3328 15.4226 56.9555 15.6278 56.5199 15.7645C56.0894 15.9013 55.6032 15.9696 55.0612 15.9696ZM56.2084 13.5385C56.6086 13.5385 56.9682 13.4575 57.2873 13.2954C57.6114 13.1333 57.8697 12.9104 58.0622 12.6268C58.2547 12.3381 58.3509 12.0038 58.3509 11.624V10.5148C58.2445 10.5705 58.1154 10.6211 57.9634 10.6667C57.8165 10.7123 57.6545 10.7553 57.4772 10.7959C57.2999 10.8364 57.1176 10.8718 56.9302 10.9022C56.7428 10.9326 56.563 10.9605 56.3908 10.9858C56.0413 11.0415 55.7425 11.1276 55.4943 11.2441C55.2512 11.3606 55.0638 11.5125 54.9321 11.6999C54.8055 11.8823 54.7422 12.1001 54.7422 12.3533C54.7422 12.7382 54.8789 13.032 55.1524 13.2346C55.431 13.4372 55.783 13.5385 56.2084 13.5385Z" fill="#1A1A1A"/>
<path d="M49.8774 4.10257V6.83761H42.5156V4.10257H49.8774ZM44.0579 1.30676H47.773V12.1025C47.773 12.3305 47.8084 12.5153 47.8793 12.6571C47.9553 12.7939 48.0642 12.8927 48.206 12.9534C48.3478 13.0092 48.5175 13.037 48.715 13.037C48.8568 13.037 49.0063 13.0244 49.1633 12.999C49.3254 12.9686 49.4469 12.9433 49.5279 12.9231L50.0901 15.6049C49.9129 15.6556 49.6622 15.7189 49.338 15.7948C49.0189 15.8708 48.6365 15.9189 48.1908 15.9392C47.3197 15.9797 46.5726 15.8784 45.9496 15.6353C45.3317 15.3871 44.8581 15.0022 44.5289 14.4805C44.2048 13.9588 44.0477 13.3029 44.0579 12.5128V1.30676Z" fill="#1A1A1A"/>
<path d="M35.4912 15.9924C34.2655 15.9924 33.212 15.7417 32.3307 15.2403C31.4545 14.7338 30.7784 14.0298 30.3023 13.1282C29.8312 12.2216 29.5957 11.1707 29.5957 9.97535C29.5957 8.77498 29.8312 7.72401 30.3023 6.82247C30.7784 5.91585 31.4545 5.21184 32.3307 4.71041C33.212 4.20393 34.2655 3.95068 35.4912 3.95068C36.7169 3.95068 37.7679 4.20393 38.6441 4.71041C39.5254 5.21184 40.2016 5.91585 40.6726 6.82247C41.1487 7.72401 41.3867 8.77498 41.3867 9.97535C41.3867 11.1707 41.1487 12.2216 40.6726 13.1282C40.2016 14.0298 39.5254 14.7338 38.6441 15.2403C37.7679 15.7417 36.7169 15.9924 35.4912 15.9924ZM35.514 13.189C35.9597 13.189 36.3371 13.0523 36.646 12.7788C36.955 12.5053 37.1905 12.1254 37.3526 11.6392C37.5197 11.1529 37.6033 10.5907 37.6033 9.95256C37.6033 9.30426 37.5197 8.73699 37.3526 8.25076C37.1905 7.76453 36.955 7.38467 36.646 7.11117C36.3371 6.83766 35.9597 6.70091 35.514 6.70091C35.0531 6.70091 34.6631 6.83766 34.344 7.11117C34.03 7.38467 33.7894 7.76453 33.6223 8.25076C33.4602 8.73699 33.3792 9.30426 33.3792 9.95256C33.3792 10.5907 33.4602 11.1529 33.6223 11.6392C33.7894 12.1254 34.03 12.5053 34.344 12.7788C34.6631 13.0523 35.0531 13.189 35.514 13.189Z" fill="#1A1A1A"/>
<path d="M20.1584 9.11682V15.7721H16.4434V0.212769H20.0369V6.24504H20.166C20.4294 5.52582 20.8599 4.96362 21.4576 4.55843C22.0603 4.15324 22.7972 3.95065 23.6684 3.95065C24.4889 3.95065 25.2031 4.13298 25.8108 4.49765C26.4186 4.85726 26.8897 5.36628 27.2239 6.02471C27.5633 6.68315 27.7304 7.45301 27.7254 8.3343V15.7721H24.0103V9.06364C24.0153 8.41533 23.8533 7.90885 23.5241 7.54418C23.1948 7.1795 22.7314 6.99717 22.1337 6.99717C21.7438 6.99717 21.3993 7.08327 21.1005 7.25548C20.8067 7.42262 20.5763 7.6632 20.4092 7.97722C20.2471 8.29124 20.1635 8.67111 20.1584 9.11682Z" fill="#1A1A1A"/>
<path d="M14.2905 5.84993H10.4919C10.4412 5.45994 10.3374 5.10793 10.1804 4.7939C10.0234 4.47988 9.81573 4.21144 9.55742 3.98859C9.29911 3.76574 8.99269 3.59606 8.63815 3.47957C8.28867 3.35801 7.9012 3.29723 7.47576 3.29723C6.72109 3.29723 6.07025 3.4821 5.52325 3.85184C4.9813 4.22157 4.56345 4.75592 4.26969 5.45487C3.98099 6.15382 3.83664 6.99966 3.83664 7.99237C3.83664 9.02561 3.98352 9.8917 4.27729 10.5907C4.57611 11.2845 4.99397 11.8088 5.53084 12.1633C6.07279 12.5128 6.71349 12.6875 7.45296 12.6875C7.86828 12.6875 8.24562 12.6343 8.58496 12.528C8.92937 12.4216 9.23073 12.2671 9.48904 12.0645C9.75242 11.8569 9.96767 11.6062 10.1348 11.3124C10.307 11.0136 10.426 10.6768 10.4919 10.302L14.2905 10.3247C14.2247 11.0136 14.0246 11.6923 13.6904 12.3608C13.3611 13.0294 12.9078 13.6397 12.3304 14.1918C11.753 14.7388 11.049 15.1744 10.2184 15.4985C9.39281 15.8227 8.44568 15.9847 7.37699 15.9847C5.96896 15.9847 4.7078 15.6758 3.59353 15.0579C2.48432 14.4349 1.6081 13.5283 0.964859 12.338C0.32162 11.1478 0 9.69924 0 7.99237C0 6.28045 0.326685 4.82936 0.980054 3.63911C1.63342 2.44887 2.51724 1.54479 3.63152 0.926872C4.74579 0.308957 5.99428 0 7.37699 0C8.31906 0 9.19022 0.131687 9.99047 0.395061C10.7907 0.653369 11.4947 1.03323 12.1025 1.53466C12.7103 2.03102 13.2041 2.64133 13.584 3.36561C13.9639 4.08989 14.1994 4.91799 14.2905 5.84993Z" fill="#1A1A1A"/>
</svg>
